<?xml version="1.0" encoding="UTF-8" standalone="no"?>
<!DOCTYPE svg PUBLIC "-//W3C//DTD SVG 1.1//EN"
 "http://www.w3.org/Graphics/SVG/1.1/DTD/svg11.dtd">
<!-- Generated by graphviz version 2.42.4 (0)
 -->
<!-- Title: G Pages: 1 -->
<svg width="882pt" height="467pt"
 viewBox="0.00 0.00 881.68 467.09" xmlns="http://www.w3.org/2000/svg" xmlns:xlink="http://www.w3.org/1999/xlink">
<g id="graph0" class="graph" transform="scale(1 1) rotate(0) translate(15.84 451.25)">
<title>G</title>
<text text-anchor="middle" x="425" y="-417.81" font-family="Helvetica,sans-Serif" font-size="17.00">Apple Silicon | Work intent, not guaranteed core affinity</text>
<!-- fg -->
<g id="node1" class="node">
<title>fg</title>
<path fill="#e6f2ef" stroke="#28766c" stroke-width="1.2" d="M140,-401.66C140,-401.66 12,-401.66 12,-401.66 6,-401.66 0,-395.66 0,-389.66 0,-389.66 0,-377.66 0,-377.66 0,-371.66 6,-365.66 12,-365.66 12,-365.66 140,-365.66 140,-365.66 146,-365.66 152,-371.66 152,-377.66 152,-377.66 152,-389.66 152,-389.66 152,-395.66 146,-401.66 140,-401.66"/>
<text text-anchor="middle" x="76" y="-386.86" font-family="Helvetica,sans-Serif" font-size="11.00" fill="#183741">Foreground read/search</text>
<text text-anchor="middle" x="76" y="-374.86" font-family="Helvetica,sans-Serif" font-size="11.00" fill="#183741">USER_INITIATED</text>
</g>
<!-- admit -->
<g id="node4" class="node">
<title>admit</title>
<path fill="#e6f2ef" stroke="#28766c" stroke-width="1.2" d="M450.5,-308.91C450.5,-308.91 301.5,-308.91 301.5,-308.91 295.5,-308.91 289.5,-302.91 289.5,-296.91 289.5,-296.91 289.5,-284.91 289.5,-284.91 289.5,-278.91 295.5,-272.91 301.5,-272.91 301.5,-272.91 450.5,-272.91 450.5,-272.91 456.5,-272.91 462.5,-278.91 462.5,-284.91 462.5,-284.91 462.5,-296.91 462.5,-296.91 462.5,-302.91 456.5,-308.91 450.5,-308.91"/>
<text text-anchor="middle" x="376" y="-294.11" font-family="Helvetica,sans-Serif" font-size="11.00" fill="#183741">Global permits + fair queue</text>
<text text-anchor="middle" x="376" y="-282.11" font-family="Helvetica,sans-Serif" font-size="11.00" fill="#183741">No per&#45;file thread explosion</text>
</g>
<!-- fg&#45;&gt;admit -->
<g id="edge1" class="edge">
<title>fg&#45;&gt;admit</title>
<path fill="none" stroke="#758895" stroke-width="1.1" d="M104.28,-365.56C125.11,-353.66 154.47,-338.31 182,-328.91 213.83,-318.05 249.74,-310.08 281.94,-304.38"/>
<polygon fill="#758895" stroke="#758895" stroke-width="1.1" points="282.7,-306.74 289.18,-303.13 281.87,-301.91 282.7,-306.74"/>
<text text-anchor="middle" x="217.5" y="-331.71" font-family="Helvetica,sans-Serif" font-size="9.00" fill="#526570">short/bulk class</text>
</g>
<!-- bulk -->
<g id="node2" class="node">
<title>bulk</title>
<path fill="#e6f2ef" stroke="#28766c" stroke-width="1.2" d="M287,-401.66C287,-401.66 191,-401.66 191,-401.66 185,-401.66 179,-395.66 179,-389.66 179,-389.66 179,-377.66 179,-377.66 179,-371.66 185,-365.66 191,-365.66 191,-365.66 287,-365.66 287,-365.66 293,-365.66 299,-371.66 299,-377.66 299,-377.66 299,-389.66 299,-389.66 299,-395.66 293,-401.66 287,-401.66"/>
<text text-anchor="middle" x="239" y="-386.86" font-family="Helvetica,sans-Serif" font-size="11.00" fill="#183741">Maintenance scan</text>
<text text-anchor="middle" x="239" y="-374.86" font-family="Helvetica,sans-Serif" font-size="11.00" fill="#183741">UTILITY</text>
</g>
<!-- bulk&#45;&gt;admit -->
<g id="edge2" class="edge">
<title>bulk&#45;&gt;admit</title>
<path fill="none" stroke="#758895" stroke-width="1.1" d="M244.15,-365.46C248.49,-353.68 255.82,-338.5 267,-328.91 275.03,-322.03 284.39,-316.41 294.2,-311.83"/>
<polygon fill="#758895" stroke="#758895" stroke-width="1.1" points="295.28,-314.03 300.7,-308.96 293.3,-309.54 295.28,-314.03"/>
<text text-anchor="middle" x="318.5" y="-331.71" font-family="Helvetica,sans-Serif" font-size="9.00" fill="#526570">bounded maintenance</text>
</g>
<!-- bg -->
<g id="node3" class="node">
<title>bg</title>
<path fill="#e6f2ef" stroke="#28766c" stroke-width="1.2" d="M414,-401.66C414,-401.66 338,-401.66 338,-401.66 332,-401.66 326,-395.66 326,-389.66 326,-389.66 326,-377.66 326,-377.66 326,-371.66 332,-365.66 338,-365.66 338,-365.66 414,-365.66 414,-365.66 420,-365.66 426,-371.66 426,-377.66 426,-377.66 426,-389.66 426,-389.66 426,-395.66 420,-401.66 414,-401.66"/>
<text text-anchor="middle" x="376" y="-386.86" font-family="Helvetica,sans-Serif" font-size="11.00" fill="#183741">Idle prefetch</text>
<text text-anchor="middle" x="376" y="-374.86" font-family="Helvetica,sans-Serif" font-size="11.00" fill="#183741">BACKGROUND</text>
</g>
<!-- bg&#45;&gt;admit -->
<g id="edge3" class="edge">
<title>bg&#45;&gt;admit</title>
<path fill="none" stroke="#758895" stroke-width="1.1" d="M376,-365.59C376,-351.74 376,-332.02 376,-316.47"/>
<polygon fill="#758895" stroke="#758895" stroke-width="1.1" points="378.45,-316.21 376,-309.21 373.55,-316.21 378.45,-316.21"/>
<text text-anchor="middle" x="394.5" y="-331.71" font-family="Helvetica,sans-Serif" font-size="9.00" fill="#526570">optional</text>
</g>
<!-- gcd -->
<g id="node5" class="node">
<title>gcd</title>
<path fill="#e6f2ef" stroke="#28766c" stroke-width="1.2" d="M440,-222.91C440,-222.91 312,-222.91 312,-222.91 306,-222.91 300,-216.91 300,-210.91 300,-210.91 300,-198.91 300,-198.91 300,-192.91 306,-186.91 312,-186.91 312,-186.91 440,-186.91 440,-186.91 446,-186.91 452,-192.91 452,-198.91 452,-198.91 452,-210.91 452,-210.91 452,-216.91 446,-222.91 440,-222.91"/>
<text text-anchor="middle" x="376" y="-208.11" font-family="Helvetica,sans-Serif" font-size="11.00" fill="#183741">Public GCD queues</text>
<text text-anchor="middle" x="376" y="-196.11" font-family="Helvetica,sans-Serif" font-size="11.00" fill="#183741">One concurrency owner</text>
</g>
<!-- admit&#45;&gt;gcd -->
<g id="edge5" class="edge">
<title>admit&#45;&gt;gcd</title>
<path fill="none" stroke="#758895" stroke-width="1.1" d="M376,-272.51C376,-260.26 376,-243.71 376,-230.17"/>
<polygon fill="#758895" stroke="#758895" stroke-width="1.1" points="378.45,-230.01 376,-223.01 373.55,-230.01 378.45,-230.01"/>
<text text-anchor="middle" x="402" y="-245.71" font-family="Helvetica,sans-Serif" font-size="9.00" fill="#526570">owned jobs</text>
</g>
<!-- os -->
<g id="node6" class="node">
<title>os</title>
<path fill="#f0edf5" stroke="#806591" stroke-width="1.2" d="M456.5,-136.91C456.5,-136.91 295.5,-136.91 295.5,-136.91 289.5,-136.91 283.5,-130.91 283.5,-124.91 283.5,-124.91 283.5,-112.91 283.5,-112.91 283.5,-106.91 289.5,-100.91 295.5,-100.91 295.5,-100.91 456.5,-100.91 456.5,-100.91 462.5,-100.91 468.5,-106.91 468.5,-112.91 468.5,-112.91 468.5,-124.91 468.5,-124.91 468.5,-130.91 462.5,-136.91 456.5,-136.91"/>
<text text-anchor="middle" x="376" y="-122.11" font-family="Helvetica,sans-Serif" font-size="11.00" fill="#183741">macOS scheduler</text>
<text text-anchor="middle" x="376" y="-110.11" font-family="Helvetica,sans-Serif" font-size="11.00" fill="#183741">QoS + thermal + power state</text>
</g>
<!-- gcd&#45;&gt;os -->
<g id="edge6" class="edge">
<title>gcd&#45;&gt;os</title>
<path fill="none" stroke="#758895" stroke-width="1.1" d="M376,-186.51C376,-174.26 376,-157.71 376,-144.17"/>
<polygon fill="#758895" stroke="#758895" stroke-width="1.1" points="378.45,-144.01 376,-137.01 373.55,-144.01 378.45,-144.01"/>
<text text-anchor="middle" x="400.5" y="-159.71" font-family="Helvetica,sans-Serif" font-size="9.00" fill="#526570">QoS intent</text>
</g>
<!-- cpu -->
<g id="node8" class="node">
<title>cpu</title>
<ellipse fill="#e7eff9" stroke="#466585" stroke-width="1.2" cx="376" cy="-25.46" rx="123.07" ry="25.41"/>
<text text-anchor="middle" x="376" y="-28.66" font-family="Helvetica,sans-Serif" font-size="11.00" fill="#183741">OS&#45;selected available cores</text>
<text text-anchor="middle" x="376" y="-16.66" font-family="Helvetica,sans-Serif" font-size="11.00" fill="#183741">No hard pinning guarantee</text>
</g>
<!-- os&#45;&gt;cpu -->
<g id="edge8" class="edge">
<title>os&#45;&gt;cpu</title>
<path fill="none" stroke="#758895" stroke-width="1.1" d="M376,-100.71C376,-88.81 376,-72.63 376,-58.4"/>
<polygon fill="#758895" stroke="#758895" stroke-width="1.1" points="378.45,-58.18 376,-51.18 373.55,-58.18 378.45,-58.18"/>
<text text-anchor="middle" x="415.5" y="-73.71" font-family="Helvetica,sans-Serif" font-size="9.00" fill="#526570">actual placement</text>
</g>
<!-- topology -->
<g id="node7" class="node">
<title>topology</title>
<path fill="#fff4d8" stroke="#b08b31" stroke-width="1.2" d="M618.5,-403.71C618.5,-406.17 581.52,-408.16 536,-408.16 490.48,-408.16 453.5,-406.17 453.5,-403.71 453.5,-403.71 453.5,-363.61 453.5,-363.61 453.5,-361.16 490.48,-359.16 536,-359.16 581.52,-359.16 618.5,-361.16 618.5,-363.61 618.5,-363.61 618.5,-403.71 618.5,-403.71"/>
<path fill="none" stroke="#b08b31" stroke-width="1.2" d="M618.5,-403.71C618.5,-401.25 581.52,-399.25 536,-399.25 490.48,-399.25 453.5,-401.25 453.5,-403.71"/>
<text text-anchor="middle" x="536" y="-386.86" font-family="Helvetica,sans-Serif" font-size="11.00" fill="#183741">Detected CPU topology</text>
<text text-anchor="middle" x="536" y="-374.86" font-family="Helvetica,sans-Serif" font-size="11.00" fill="#183741">P/E or super/P or unknown</text>
</g>
<!-- topology&#45;&gt;admit -->
<g id="edge7" class="edge">
<title>topology&#45;&gt;admit</title>
<path fill="none" stroke="#758895" stroke-width="1.1" d="M494.38,-359.06C468.97,-344.64 436.78,-326.38 412.39,-312.55"/>
<polygon fill="#758895" stroke="#758895" stroke-width="1.1" points="413.34,-310.27 406.04,-308.95 410.92,-314.54 413.34,-310.27"/>
<text text-anchor="middle" x="498.5" y="-331.71" font-family="Helvetica,sans-Serif" font-size="9.00" fill="#526570">conservative limits</text>
</g>
<!-- model -->
<g id="node9" class="node">
<title>model</title>
<path fill="#f9e9e5" stroke="#a65842" stroke-width="1.2" d="M838,-401.66C838,-401.66 658,-401.66 658,-401.66 652,-401.66 646,-395.66 646,-389.66 646,-389.66 646,-377.66 646,-377.66 646,-371.66 652,-365.66 658,-365.66 658,-365.66 838,-365.66 838,-365.66 844,-365.66 850,-371.66 850,-377.66 850,-377.66 850,-389.66 850,-389.66 850,-395.66 844,-401.66 838,-401.66"/>
<text text-anchor="middle" x="748" y="-386.86" font-family="Helvetica,sans-Serif" font-size="11.00" fill="#183741">Local LLM coexist budget</text>
<text text-anchor="middle" x="748" y="-374.86" font-family="Helvetica,sans-Serif" font-size="11.00" fill="#183741">CPU / memory / bandwidth guard</text>
</g>
<!-- model&#45;&gt;admit -->
<g id="edge4" class="edge">
<title>model&#45;&gt;admit</title>
<path fill="none" stroke="#758895" stroke-width="1.1" d="M687.06,-365.55C647.31,-354.58 594.22,-340.33 547,-328.91 520.71,-322.56 492.02,-316.15 465.78,-310.49"/>
<polygon fill="#758895" stroke="#758895" stroke-width="1.1" points="466.17,-308.06 458.81,-308.99 465.14,-312.86 466.17,-308.06"/>
<text text-anchor="middle" x="611" y="-331.71" font-family="Helvetica,sans-Serif" font-size="9.00" fill="#526570">lower limits</text>
</g>
</g>
</svg>
