<?xml version="1.0" encoding="UTF-8" standalone="no"?>
<!DOCTYPE svg PUBLIC "-//W3C//DTD SVG 1.1//EN"
 "http://www.w3.org/Graphics/SVG/1.1/DTD/svg11.dtd">
<!-- Generated by graphviz version 2.42.4 (0)
 -->
<!-- Title: G Pages: 1 -->
<svg width="670pt" height="638pt"
 viewBox="0.00 0.00 670.18 637.68" xmlns="http://www.w3.org/2000/svg" xmlns:xlink="http://www.w3.org/1999/xlink">
<g id="graph0" class="graph" transform="scale(1 1) rotate(0) translate(15.84 621.84)">
<title>G</title>
<text text-anchor="middle" x="319.25" y="-588.4" font-family="Helvetica,sans-Serif" font-size="17.00">Dynamic | Single&#45;file commit and recovery</text>
<!-- auth -->
<g id="node1" class="node">
<title>auth</title>
<path fill="#e6f2ef" stroke="#28766c" stroke-width="1.2" d="M145.5,-579C145.5,-579 13.5,-579 13.5,-579 7.5,-579 1.5,-573 1.5,-567 1.5,-567 1.5,-555 1.5,-555 1.5,-549 7.5,-543 13.5,-543 13.5,-543 145.5,-543 145.5,-543 151.5,-543 157.5,-549 157.5,-555 157.5,-555 157.5,-567 157.5,-567 157.5,-573 151.5,-579 145.5,-579"/>
<text text-anchor="middle" x="79.5" y="-558.2" font-family="Helvetica,sans-Serif" font-size="11.00" fill="#183741">Authorize + writer fence</text>
</g>
<!-- check -->
<g id="node2" class="node">
<title>check</title>
<path fill="#e6f2ef" stroke="#28766c" stroke-width="1.2" d="M147,-493C147,-493 12,-493 12,-493 6,-493 0,-487 0,-481 0,-481 0,-469 0,-469 0,-463 6,-457 12,-457 12,-457 147,-457 147,-457 153,-457 159,-463 159,-469 159,-469 159,-481 159,-481 159,-487 153,-493 147,-493"/>
<text text-anchor="middle" x="79.5" y="-478.2" font-family="Helvetica,sans-Serif" font-size="11.00" fill="#183741">Read full bytes</text>
<text text-anchor="middle" x="79.5" y="-466.2" font-family="Helvetica,sans-Serif" font-size="11.00" fill="#183741">Check expected SHA&#45;256</text>
</g>
<!-- auth&#45;&gt;check -->
<g id="edge1" class="edge">
<title>auth&#45;&gt;check</title>
<path fill="none" stroke="#758895" stroke-width="1.1" d="M79.5,-542.6C79.5,-530.35 79.5,-513.8 79.5,-500.26"/>
<polygon fill="#758895" stroke="#758895" stroke-width="1.1" points="81.95,-500.1 79.5,-493.1 77.05,-500.1 81.95,-500.1"/>
<text text-anchor="middle" x="103" y="-515.8" font-family="Helvetica,sans-Serif" font-size="9.00" fill="#526570">valid lease</text>
</g>
<!-- temp -->
<g id="node3" class="node">
<title>temp</title>
<path fill="#e6f2ef" stroke="#28766c" stroke-width="1.2" d="M285,-407C285,-407 146,-407 146,-407 140,-407 134,-401 134,-395 134,-395 134,-383 134,-383 134,-377 140,-371 146,-371 146,-371 285,-371 285,-371 291,-371 297,-377 297,-383 297,-383 297,-395 297,-395 297,-401 291,-407 285,-407"/>
<text text-anchor="middle" x="215.5" y="-392.2" font-family="Helvetica,sans-Serif" font-size="11.00" fill="#183741">Create same&#45;parent temp</text>
<text text-anchor="middle" x="215.5" y="-380.2" font-family="Helvetica,sans-Serif" font-size="11.00" fill="#183741">Apply spans + metadata</text>
</g>
<!-- check&#45;&gt;temp -->
<g id="edge2" class="edge">
<title>check&#45;&gt;temp</title>
<path fill="none" stroke="#758895" stroke-width="1.1" d="M107.35,-456.8C128.89,-443.49 158.81,-425.01 181.72,-410.86"/>
<polygon fill="#758895" stroke="#758895" stroke-width="1.1" points="183.02,-412.94 187.69,-407.18 180.44,-408.77 183.02,-412.94"/>
<text text-anchor="middle" x="187.5" y="-429.8" font-family="Helvetica,sans-Serif" font-size="9.00" fill="#526570">digest matches</text>
</g>
<!-- abort -->
<g id="node8" class="node">
<title>abort</title>
<path fill="#f0edf5" stroke="#806591" stroke-width="1.2" d="M197,-42.75C197,-42.75 100,-42.75 100,-42.75 94,-42.75 88,-36.75 88,-30.75 88,-30.75 88,-18.75 88,-18.75 88,-12.75 94,-6.75 100,-6.75 100,-6.75 197,-6.75 197,-6.75 203,-6.75 209,-12.75 209,-18.75 209,-18.75 209,-30.75 209,-30.75 209,-36.75 203,-42.75 197,-42.75"/>
<text text-anchor="middle" x="148.5" y="-27.95" font-family="Helvetica,sans-Serif" font-size="11.00" fill="#183741">ABORTED</text>
<text text-anchor="middle" x="148.5" y="-15.95" font-family="Helvetica,sans-Serif" font-size="11.00" fill="#183741">source unchanged</text>
</g>
<!-- check&#45;&gt;abort -->
<g id="edge7" class="edge">
<title>check&#45;&gt;abort</title>
<path fill="none" stroke="#758895" stroke-width="1.1" d="M71.97,-457C65.26,-440.29 56.5,-413.89 56.5,-390 56.5,-390 56.5,-390 56.5,-116.5 56.5,-85.89 82.63,-62.13 107.04,-46.61"/>
<polygon fill="#758895" stroke="#758895" stroke-width="1.1" points="108.5,-48.59 113.19,-42.85 105.94,-44.41 108.5,-48.59"/>
<text text-anchor="middle" x="93" y="-244.3" font-family="Helvetica,sans-Serif" font-size="9.00" fill="#526570">conflict / cancel</text>
</g>
<!-- prepare -->
<g id="node4" class="node">
<title>prepare</title>
<path fill="#fff4d8" stroke="#b08b31" stroke-width="1.2" d="M302,-316.3C302,-318.76 275.33,-320.75 242.5,-320.75 209.67,-320.75 183,-318.76 183,-316.3 183,-316.3 183,-276.2 183,-276.2 183,-273.74 209.67,-271.75 242.5,-271.75 275.33,-271.75 302,-273.74 302,-276.2 302,-276.2 302,-316.3 302,-316.3"/>
<path fill="none" stroke="#b08b31" stroke-width="1.2" d="M302,-316.3C302,-313.84 275.33,-311.84 242.5,-311.84 209.67,-311.84 183,-313.84 183,-316.3"/>
<text text-anchor="middle" x="242.5" y="-299.45" font-family="Helvetica,sans-Serif" font-size="11.00" fill="#183741">PREPARED journal</text>
<text text-anchor="middle" x="242.5" y="-287.45" font-family="Helvetica,sans-Serif" font-size="11.00" fill="#183741">old / new hashes</text>
</g>
<!-- temp&#45;&gt;prepare -->
<g id="edge3" class="edge">
<title>temp&#45;&gt;prepare</title>
<path fill="none" stroke="#758895" stroke-width="1.1" d="M220.58,-370.93C224.18,-358.84 229.1,-342.29 233.37,-327.93"/>
<polygon fill="#758895" stroke="#758895" stroke-width="1.1" points="235.76,-328.5 235.41,-321.09 231.06,-327.1 235.76,-328.5"/>
<text text-anchor="middle" x="275.5" y="-343.8" font-family="Helvetica,sans-Serif" font-size="9.00" fill="#526570">complete new bytes</text>
</g>
<!-- commit -->
<g id="node5" class="node">
<title>commit</title>
<path fill="#f9e9e5" stroke="#a65842" stroke-width="1.2" d="M402.5,-221.5C402.5,-221.5 322.5,-221.5 322.5,-221.5 316.5,-221.5 310.5,-215.5 310.5,-209.5 310.5,-209.5 310.5,-197.5 310.5,-197.5 310.5,-191.5 316.5,-185.5 322.5,-185.5 322.5,-185.5 402.5,-185.5 402.5,-185.5 408.5,-185.5 414.5,-191.5 414.5,-197.5 414.5,-197.5 414.5,-209.5 414.5,-209.5 414.5,-215.5 408.5,-221.5 402.5,-221.5"/>
<text text-anchor="middle" x="362.5" y="-206.7" font-family="Helvetica,sans-Serif" font-size="11.00" fill="#183741">Atomic replace</text>
<text text-anchor="middle" x="362.5" y="-194.7" font-family="Helvetica,sans-Serif" font-size="11.00" fill="#183741">COMMIT POINT</text>
</g>
<!-- prepare&#45;&gt;commit -->
<g id="edge4" class="edge">
<title>prepare&#45;&gt;commit</title>
<path fill="none" stroke="#758895" stroke-width="1.1" d="M273.72,-271.64C292.31,-257.58 315.73,-239.87 333.85,-226.16"/>
<polygon fill="#758895" stroke="#758895" stroke-width="1.1" points="335.67,-227.86 339.78,-221.68 332.72,-223.95 335.67,-227.86"/>
<text text-anchor="middle" x="372" y="-244.3" font-family="Helvetica,sans-Serif" font-size="9.00" fill="#526570">final fence / version check</text>
</g>
<!-- prepare&#45;&gt;abort -->
<g id="edge8" class="edge">
<title>prepare&#45;&gt;abort</title>
<path fill="none" stroke="#758895" stroke-width="1.1" d="M231.15,-271.74C219.03,-246.05 199.78,-203.48 186.5,-165.5 172.55,-125.63 160.55,-77.91 153.94,-49.81"/>
<polygon fill="#758895" stroke="#758895" stroke-width="1.1" points="156.27,-49.03 152.3,-42.77 151.5,-50.14 156.27,-49.03"/>
<text text-anchor="middle" x="229" y="-158.3" font-family="Helvetica,sans-Serif" font-size="9.00" fill="#526570">pre&#45;commit cancel</text>
</g>
<!-- recover -->
<g id="node9" class="node">
<title>recover</title>
<path fill="#e6f2ef" stroke="#28766c" stroke-width="1.2" d="M395.5,-135.5C395.5,-135.5 233.5,-135.5 233.5,-135.5 227.5,-135.5 221.5,-129.5 221.5,-123.5 221.5,-123.5 221.5,-111.5 221.5,-111.5 221.5,-105.5 227.5,-99.5 233.5,-99.5 233.5,-99.5 395.5,-99.5 395.5,-99.5 401.5,-99.5 407.5,-105.5 407.5,-111.5 407.5,-111.5 407.5,-123.5 407.5,-123.5 407.5,-129.5 401.5,-135.5 395.5,-135.5"/>
<text text-anchor="middle" x="314.5" y="-120.7" font-family="Helvetica,sans-Serif" font-size="11.00" fill="#183741">Crash recovery</text>
<text text-anchor="middle" x="314.5" y="-108.7" font-family="Helvetica,sans-Serif" font-size="11.00" fill="#183741">old/new/uncertain comparison</text>
</g>
<!-- prepare&#45;&gt;recover -->
<g id="edge9" class="edge">
<title>prepare&#45;&gt;recover</title>
<path fill="none" stroke="#758895" stroke-width="1.1" d="M244.85,-271.69C247.77,-248.86 253.98,-213.66 266.5,-185.5 273.55,-169.66 284.68,-153.8 294.44,-141.49"/>
<polygon fill="#758895" stroke="#758895" stroke-width="1.1" points="296.6,-142.73 299.11,-135.75 292.79,-139.64 296.6,-142.73"/>
<text text-anchor="middle" x="282" y="-201.3" font-family="Helvetica,sans-Serif" font-size="9.00" fill="#526570">restart</text>
</g>
<!-- persist -->
<g id="node6" class="node">
<title>persist</title>
<path fill="#e6f2ef" stroke="#28766c" stroke-width="1.2" d="M626.5,-135.5C626.5,-135.5 482.5,-135.5 482.5,-135.5 476.5,-135.5 470.5,-129.5 470.5,-123.5 470.5,-123.5 470.5,-111.5 470.5,-111.5 470.5,-105.5 476.5,-99.5 482.5,-99.5 482.5,-99.5 626.5,-99.5 626.5,-99.5 632.5,-99.5 638.5,-105.5 638.5,-111.5 638.5,-111.5 638.5,-123.5 638.5,-123.5 638.5,-129.5 632.5,-135.5 626.5,-135.5"/>
<text text-anchor="middle" x="554.5" y="-114.7" font-family="Helvetica,sans-Serif" font-size="11.00" fill="#183741">Persistence level + receipt</text>
</g>
<!-- commit&#45;&gt;persist -->
<g id="edge5" class="edge">
<title>commit&#45;&gt;persist</title>
<path fill="none" stroke="#758895" stroke-width="1.1" d="M401.82,-185.3C432.85,-171.72 476.2,-152.76 508.78,-138.5"/>
<polygon fill="#758895" stroke="#758895" stroke-width="1.1" points="510.13,-140.58 515.56,-135.53 508.17,-136.1 510.13,-140.58"/>
<text text-anchor="middle" x="480.5" y="-158.3" font-family="Helvetica,sans-Serif" font-size="9.00" fill="#526570">applied</text>
</g>
<!-- commit&#45;&gt;recover -->
<g id="edge10" class="edge">
<title>commit&#45;&gt;recover</title>
<path fill="none" stroke="#758895" stroke-width="1.1" d="M352.55,-185.1C345.43,-172.62 335.75,-155.68 327.93,-142.01"/>
<polygon fill="#758895" stroke="#758895" stroke-width="1.1" points="329.87,-140.46 324.27,-135.6 325.61,-142.89 329.87,-140.46"/>
<text text-anchor="middle" x="355" y="-158.3" font-family="Helvetica,sans-Serif" font-size="9.00" fill="#526570">restart</text>
</g>
<!-- done -->
<g id="node7" class="node">
<title>done</title>
<path fill="#fff4d8" stroke="#b08b31" stroke-width="1.2" d="M574.5,-44.8C574.5,-47.26 553.88,-49.25 528.5,-49.25 503.12,-49.25 482.5,-47.26 482.5,-44.8 482.5,-44.8 482.5,-4.7 482.5,-4.7 482.5,-2.24 503.12,-0.25 528.5,-0.25 553.88,-0.25 574.5,-2.24 574.5,-4.7 574.5,-4.7 574.5,-44.8 574.5,-44.8"/>
<path fill="none" stroke="#b08b31" stroke-width="1.2" d="M574.5,-44.8C574.5,-42.34 553.88,-40.34 528.5,-40.34 503.12,-40.34 482.5,-42.34 482.5,-44.8"/>
<text text-anchor="middle" x="528.5" y="-27.95" font-family="Helvetica,sans-Serif" font-size="11.00" fill="#183741">COMMITTED</text>
<text text-anchor="middle" x="528.5" y="-15.95" font-family="Helvetica,sans-Serif" font-size="11.00" fill="#183741">applied=true</text>
</g>
<!-- persist&#45;&gt;done -->
<g id="edge6" class="edge">
<title>persist&#45;&gt;done</title>
<path fill="none" stroke="#758895" stroke-width="1.1" d="M560.27,-99.19C562.4,-90.16 563.62,-79.04 560.5,-69.5 558.93,-64.7 556.62,-60 553.94,-55.55"/>
<polygon fill="#758895" stroke="#758895" stroke-width="1.1" points="555.97,-54.19 550.09,-49.67 551.87,-56.87 555.97,-54.19"/>
<text text-anchor="middle" x="598" y="-72.3" font-family="Helvetica,sans-Serif" font-size="9.00" fill="#526570">record outcome</text>
</g>
<!-- recover&#45;&gt;done -->
<g id="edge11" class="edge">
<title>recover&#45;&gt;done</title>
<path fill="none" stroke="#758895" stroke-width="1.1" d="M378.97,-99.47C397.22,-93.89 416.9,-87.13 434.5,-79.5 452.31,-71.77 471.06,-61.53 487.08,-52.06"/>
<polygon fill="#758895" stroke="#758895" stroke-width="1.1" points="488.55,-54.03 493.3,-48.34 486.04,-49.83 488.55,-54.03"/>
<text text-anchor="middle" x="499.5" y="-72.3" font-family="Helvetica,sans-Serif" font-size="9.00" fill="#526570">new hash confirmed</text>
</g>
<!-- recover&#45;&gt;abort -->
<g id="edge12" class="edge">
<title>recover&#45;&gt;abort</title>
<path fill="none" stroke="#758895" stroke-width="1.1" d="M261.94,-99.36C247.48,-93.81 232.05,-87.1 218.5,-79.5 202.51,-70.53 186.17,-58.2 173.31,-47.61"/>
<polygon fill="#758895" stroke="#758895" stroke-width="1.1" points="174.6,-45.5 167.65,-42.89 171.45,-49.26 174.6,-45.5"/>
<text text-anchor="middle" x="262.5" y="-72.3" font-family="Helvetica,sans-Serif" font-size="9.00" fill="#526570">old hash confirmed</text>
</g>
<!-- quarantine -->
<g id="node10" class="node">
<title>quarantine</title>
<path fill="#f9e9e5" stroke="#a65842" stroke-width="1.2" d="M358,-42.75C358,-42.75 271,-42.75 271,-42.75 265,-42.75 259,-36.75 259,-30.75 259,-30.75 259,-18.75 259,-18.75 259,-12.75 265,-6.75 271,-6.75 271,-6.75 358,-6.75 358,-6.75 364,-6.75 370,-12.75 370,-18.75 370,-18.75 370,-30.75 370,-30.75 370,-36.75 364,-42.75 358,-42.75"/>
<text text-anchor="middle" x="314.5" y="-27.95" font-family="Helvetica,sans-Serif" font-size="11.00" fill="#183741">UNCERTAIN</text>
<text text-anchor="middle" x="314.5" y="-15.95" font-family="Helvetica,sans-Serif" font-size="11.00" fill="#183741">write quarantine</text>
</g>
<!-- recover&#45;&gt;quarantine -->
<g id="edge13" class="edge">
<title>recover&#45;&gt;quarantine</title>
<path fill="none" stroke="#758895" stroke-width="1.1" d="M313.94,-99.18C313.76,-92.98 313.59,-85.93 313.5,-79.5 313.37,-69.93 313.51,-59.4 313.71,-50.21"/>
<polygon fill="#758895" stroke="#758895" stroke-width="1.1" points="316.16,-50.24 313.89,-43.18 311.27,-50.11 316.16,-50.24"/>
<text text-anchor="middle" x="373" y="-72.3" font-family="Helvetica,sans-Serif" font-size="9.00" fill="#526570">neither / identity changed</text>
</g>
</g>
</svg>
